<?xml version="1.0" encoding="UTF-8" standalone="no"?>
<!-- Created with Inkscape (http://www.inkscape.org/) -->

<svg
   xmlns:dc="http://purl.org/dc/elements/1.1/"
   xmlns:cc="http://creativecommons.org/ns#"
   xmlns:rdf="http://www.w3.org/1999/02/22-rdf-syntax-ns#"
   xmlns:svg="http://www.w3.org/2000/svg"
   xmlns="http://www.w3.org/2000/svg"
   xmlns:xlink="http://www.w3.org/1999/xlink"
   xmlns:sodipodi="http://sodipodi.sourceforge.net/DTD/sodipodi-0.dtd"
   xmlns:inkscape="http://www.inkscape.org/namespaces/inkscape"
   version="1.1"
   id="svg18"
   width="6754"
   height="2812"
   viewBox="0 0 6754 2812"
   sodipodi:docname="Level_Complete4.svg"
   inkscape:version="0.92.4 (5da689c313, 2019-01-14)">
  <metadata
     id="metadata24">
    <rdf:RDF>
      <cc:Work
         rdf:about="">
        <dc:format>image/svg+xml</dc:format>
        <dc:type
           rdf:resource="http://purl.org/dc/dcmitype/StillImage" />
      </cc:Work>
    </rdf:RDF>
  </metadata>
  <defs
     id="defs22" />
  <sodipodi:namedview
     pagecolor="#ffffff"
     bordercolor="#666666"
     borderopacity="1"
     objecttolerance="10"
     gridtolerance="10"
     guidetolerance="10"
     inkscape:pageopacity="0"
     inkscape:pageshadow="2"
     inkscape:window-width="1920"
     inkscape:window-height="1017"
     id="namedview20"
     showgrid="false"
     inkscape:zoom="0.52265324"
     inkscape:cx="4852.0318"
     inkscape:cy="1706.3823"
     inkscape:window-x="-8"
     inkscape:window-y="-8"
     inkscape:window-maximized="1"
     inkscape:current-layer="svg18" />
  <image
     sodipodi:absref="D:\Courses\Programming 2\GameProject\Couvreur_Bryn_MetroidFusion\Resources\Level\Level_Complete4SVG.png"
     xlink:href="Level_Complete4SVG.png"
     y="0"
     x="0"
     id="image26"
     preserveAspectRatio="none"
     height="2812"
     width="6754" />
  <path
     style="fill:#000000"
     d="m 3858,2811.3326 v -934.3073 l -2372.9947,-1.0182 -0.5053,369.5 L 0,2246.0013 0,1910 h 984 v -96 h 169 v 66 h -101 v 161 H 919 v -97 H 43 v 234 H 413.97191 L 414.5,2114.5 h 101 l 0.52771,64.5 h 134.9442 L 651.5,2115.5 h 98 l 0.52809,63.5 H 1420 v -68.9734 l -67.5,-0.5266 v -28 l 67.5,-0.5266 V 1910.027 l -66.5,-0.527 -0.5281,-63.4727 L 1287.5,1845.5 v -29 l 195.1637,-0.2525 195.1637,-0.2525 58.9402,-30.995 H 1893.3838 2050 v 62 h 289 v -60.7309 l 689.5,-1.0156 62.6863,32.7465 h 574.593 l 66.4198,-32 285.8009,-3 v 23 h -68 v 100 h -33 v 487 h 97.0119 l -0.5119,327.0001 545.4347,-1e-4 119.9413,63 H 6245 v -285 h -888 v 151.6716 L 5005.5912,2648.7223 4878.5,2585.5 4212,2584.9912 V 2556 h 65.0054 l -0.5054,-359.5 -65.5,-0.5273 -0.158,-37.4727 -127.8421,2.5 v -27 h 128 v -61.9727 l 65.5,-0.5273 v -160 l -64.494,-0.5277 -0.506,-324.4723 h -260 l -0.5284,61.1722 -218.9834,1.3278 -65.9764,-33 h -576.1939 l -60.3179,32.2433 -260,-1.424 -54.5,-30.1973 V 1591 h 158.0061 l -0.5061,-318.5 -67,-33.3298 -26.5,-0.17 v -56.188 l 135.75,0.7118 135.75,0.7118 59.1975,-32.2356 h 166.6512 166.6513 v 63 h 283 v -62.6715 l 429,-1.3285 v 33 h 515 v -227 h -323 v 92 h -62.2055 l -127.0621,-61 h -88.7324 v -120 h -66 v -27 h 223 v -134 h -95 v -29 h -128 v -29 h 65 v -60 h 59.6869 l 57.8131,-32.78936 452.5,1.07973 v 32.70963 l 710.2341,-3 61.9515,33 h 481.7295 l 60.7561,-31 644.3288,2 v 500.9936 l -305.5,0.5064 -0.5069,282.5 h 385.0069 l 5,-3 V 591.30755 l 38,-1.30735 v -101 h -167 v 30 h -67 v -64 h -166 v 66 h -41 L 6276,460 H 5951.7297 L 5891.776,428 H 5411.1921 L 5351.5,458.60197 4900,458.05099 4448.5,457.5 v -28 l 66.4817,-0.52694 L 4515.5,327.5 4644,326.9853 V 260.02696 L 4577.5,259.5 v -27 l 296,-0.46431 L 4945.4049,299 H 5264 V 31 H 4839 V 96 H 4612 V 49 h -103 v 47 h -65 v 97 h -96 v 231 l -156,3 v -46 h -318 v 364 h 95 v 26 h -66 v 33 h -29 v 80 80 h 96 v 28 h -66 v 27 l -151,1.3238 v -61.3262 h -340 v 61.6439 l -299.5,-0.8384 -61.2588,30.1945 L 2840,1048.6744 v -25.6743 h -96 v -51 h -63 v -28 h 65 v -62 h 94 v -132 h -68.2058 l -63.113,-34 h -95.4572 l -59.9537,32 H 2488 v 134.98022 l 93.5,0.51978 v 56 l -65.5,0.52733 v 243.95827 l 131.5,0.5144 v 24 l -66.4467,0.5269 -0.5533,29.4731 -59,0.6156 -64,32.3844 -0.5099,193.4943 345.5099,0.5057 v 27 l -104.0678,1 -51.11,28.5 H 2488 v 128 h -120 v -63 h -346 v 63 l -120.5,-1.5 -0.2556,-85.2449 -0.2556,-85.245 -189.4888,-0.5101 v -57 l 249.5,-0.5078 v -19.9899 -19.99 l -154.5,-0.5123 v -55 l 30.4496,-0.5518 59.7273,-33.9482 H 1932 v -321 h -352.9479 l -0.5521,30.5 -91,1 v 66.5 66.5 l 95,1 60.724,32.5 H 1672 v 56 h -96 v 31 h -62 v 339 h 100.2472 l 61.9292,28 H 1738 v 56 h -320 v -64 h -330 v 167 H 986.28873 l -1.47688,-199.8866 0.65309,-1.0567 0.65309,-1.0567 h 498.87907 l 0.2514,-336.25 0.2515,-336.25 475.8958,-0.50415 0.783,0.78297 0.783,0.78297 0.214,649.43821 H 2427 v -880 h 471 v 254 l 916.1448,-2 -2.2923,-561 h 472.1416 L 4284.5,34.5 4770,33.995943 V 0 h 529 v 370 l 1455,-2 v 1041 h -506 l 3,-728 -1967,3.27426 V 929.99535 L 4706.5,930.5 v 313 l -1805.5,0.1832 -1.3271,315.3168 1439.3281,-2 0.5021,933.5 1917.5001,2 -1e-4,317.5 z"
     id="path116" />
  <path
     style="fill:#000000"
     d="m 4083,2646 v -24 h 62 v 24 z"
     id="path114" />
  <path
     style="fill:#000000"
     d="m 4050,2512 v -25 h 65 v 25 z"
     id="path112" />
  <path
     style="fill:#000000"
     d="m 4084,2322 v -28 h 124 v 28 z"
     id="path110" />
  <path
     style="fill:#000000"
     d="m 3955,2226 v -27 h 61 v 27 z"
     id="path108" />
  <path
     style="fill:#000000"
     d="M 1252.7796,2010.5311 1250,1979.118 1316,1980 v 30 z"
     id="path106" />
  <path
     style="fill:#000000"
     d="m 4083,2000 v -25 h 63 v 25 z"
     id="path104" />
  <path
     style="fill:#000000"
     d="m 1152.9479,1912 0.5521,-30.5 64.5,-0.5277 V 1912 Z"
     id="path102" />
  <path
     style="fill:#000000"
     d="m 3988,1904 -1.3044,-25 h 61.2964 v 25 z"
     id="path100" />
  <path
     style="fill:#000000"
     d="m 4115,1840 -1.3044,-25 h 64.2964 v 25 z"
     id="path98" />
  <path
     style="fill:#000000"
     d="m 1740,1716 v -31 h 65 v 31 z"
     id="path96" />
  <path
     style="fill:#000000"
     d="m 2586,1678 v -26 h 60 v 26 z"
     id="path94" />
  <path
     style="fill:#000000"
     d="m 1644,1511 v -29 h 64 v 29 z"
     id="path92" />
  <path
     style="fill:#000000"
     d="m 2586,1400 v -29 h 60 v 29 z"
     id="path90" />
  <path
     style="fill:#000000"
     d="m 2679,1307 v -30 h 63 v 30 z"
     id="path88" />
  <path
     style="fill:#000000"
     d="m 1707.767,1254 2.4914,-27 H 1772 v 27 z"
     id="path86" />
  <path
     style="fill:#000000"
     d="m 2679,1118 v -30 h 63 v 30 z"
     id="path84" />
  <path
     style="fill:#000000"
     d="m 4003,1085 v -28 h 61 v 28 z"
     id="path82" />
  <path
     style="fill:#000000"
     d="m 2584,1023 v -29 h 63 v 29 z"
     id="path28" />
</svg>
