<?xml version="1.0" encoding="UTF-8" standalone="no"?>
<!-- Created with Inkscape (http://www.inkscape.org/) -->

<svg
   xmlns:dc="http://purl.org/dc/elements/1.1/"
   xmlns:cc="http://creativecommons.org/ns#"
   xmlns:rdf="http://www.w3.org/1999/02/22-rdf-syntax-ns#"
   xmlns:svg="http://www.w3.org/2000/svg"
   xmlns="http://www.w3.org/2000/svg"
   xmlns:xlink="http://www.w3.org/1999/xlink"
   xmlns:sodipodi="http://sodipodi.sourceforge.net/DTD/sodipodi-0.dtd"
   xmlns:inkscape="http://www.inkscape.org/namespaces/inkscape"
   version="1.1"
   id="svg10"
   width="6754"
   height="2812"
   viewBox="0 0 6754 2812"
   sodipodi:docname="Level_EnemyCollision.svg"
   inkscape:version="0.92.4 (5da689c313, 2019-01-14)">
  <metadata
     id="metadata16">
    <rdf:RDF>
      <cc:Work
         rdf:about="">
        <dc:format>image/svg+xml</dc:format>
        <dc:type
           rdf:resource="http://purl.org/dc/dcmitype/StillImage" />
        <dc:title></dc:title>
      </cc:Work>
    </rdf:RDF>
  </metadata>
  <defs
     id="defs14" />
  <sodipodi:namedview
     pagecolor="#ffffff"
     bordercolor="#666666"
     borderopacity="1"
     objecttolerance="10"
     gridtolerance="10"
     guidetolerance="10"
     inkscape:pageopacity="0"
     inkscape:pageshadow="2"
     inkscape:window-width="1920"
     inkscape:window-height="1017"
     id="namedview12"
     showgrid="false"
     inkscape:zoom="0.36957165"
     inkscape:cx="4841.8879"
     inkscape:cy="1520.0591"
     inkscape:window-x="-8"
     inkscape:window-y="-8"
     inkscape:window-maximized="1"
     inkscape:current-layer="svg10" />
  <image
     sodipodi:absref="D:\Courses\Programming 2\GameProject\Couvreur_Bryn_MetroidFusion\Resources\Level\Level_EnemyCollisionSVG.png"
     xlink:href="Level_EnemyCollisionSVG.png"
     y="0"
     x="0"
     id="image18"
     preserveAspectRatio="none"
     height="2812"
     width="6754" />
  <path
     style="fill:#000000"
     d="m 4683,2782 v -133 h 21 v 133 z"
     id="path52"
     inkscape:connector-curvature="0"
     sodipodi:nodetypes="ccccc" />
  <path
     style="fill:#000000"
     d="m 5289,2782 v -133 h 21 v 133 z"
     id="path50"
     inkscape:connector-curvature="0"
     sodipodi:nodetypes="ccccc" />
  <path
     style="fill:#000000"
     d="m 24.715347,2228 1.191992,-182 H 47 l -4,139 h 365 v -131 h 21 l -2,174 z"
     id="path48"
     inkscape:connector-curvature="0"
     sodipodi:nodetypes="ccccccccc" />
  <path
     style="fill:#000000"
     d="m 980,2179 v -133 h 21 v 133 z"
     id="path46"
     inkscape:connector-curvature="0"
     sodipodi:nodetypes="ccccc" />
  <path
     style="fill:#000000"
     d="m 1407,2179 v -133 h 21 v 133 z"
     id="path44"
     inkscape:connector-curvature="0"
     sodipodi:nodetypes="ccccc" />
  <path
     style="fill:#000000"
     d="M 1489.765,1877 1479,1819 v -133 h 21 v 132 h 176.4585 l 63.9251,-30.495 L 1737,1654 h 21 v 133 z"
     id="path42"
     inkscape:connector-curvature="0"
     sodipodi:nodetypes="ccccccccccc" />
  <path
     style="fill:#000000"
     d="M 2907.2248,1873 2893,1654 h 21 v 132 h 111.855 l 67.0663,31 h 572.3957 l 62.5507,-32 H 3848 v -131 h 21 l -13,219 z"
     id="path40"
     inkscape:connector-curvature="0"
     sodipodi:nodetypes="ccccccccccccc" />
  <path
     style="fill:#000000"
     d="m 2422,1782 v -133 h 21 v 133 z"
     id="path38"
     inkscape:connector-curvature="0"
     sodipodi:nodetypes="ccccc" />
  <path
     style="fill:#000000"
     d="m 2443,1473 v -133 h 21 v 133 z"
     id="path36"
     inkscape:connector-curvature="0"
     sodipodi:nodetypes="ccccc" />
  <path
     style="fill:#000000"
     d="m 2788,1473 v -133 h 21 v 133 z"
     id="path34"
     inkscape:connector-curvature="0"
     sodipodi:nodetypes="ccccc" />
  <path
     style="fill:#000000"
     d="m 6265,1399 -31,-136 h 33 v 111 h 411 v -103 h 33 l -8,128 z"
     id="path32"
     inkscape:connector-curvature="0"
     sodipodi:nodetypes="ccccccccc" />
  <path
     style="fill:#000000"
     d="M 2902.7832,1206 2893,1056 h 21 v 126 h 139.3186 l 55.9016,-33 H 3345 v -133 h 21 l -9,190 z"
     id="path30"
     inkscape:connector-curvature="0"
     sodipodi:nodetypes="ccccccccccc" />
  <path
     style="fill:#000000"
     d="m 4150,1189 v -133 h 21 v 133 z"
     id="path28"
     inkscape:connector-curvature="0"
     sodipodi:nodetypes="ccccc" />
  <path
     style="fill:#000000"
     d="m 4662,1189 v -133 h 21 v 133 z"
     id="path26"
     inkscape:connector-curvature="0"
     sodipodi:nodetypes="ccccc" />
  <path
     style="fill:#000000"
     d="m 4063,871 -24,-146 h 28 v 114 h 159 V 725 h 28 v 119 l -21,27 z"
     id="path24"
     inkscape:connector-curvature="0"
     sodipodi:nodetypes="cccccccccc" />
  <path
     style="fill:#000000"
     d="m 4628,636 2.9996,-177 h 21 v 128 h 593 V 452 h 21 l -9,184 z"
     id="path20"
     inkscape:connector-curvature="0"
     sodipodi:nodetypes="ccccccccc" />
</svg>
